<svg xmlns="http://www.w3.org/2000/svg" viewBox="0 0 32 32"><path d="M4.5 28h23c1.378 0 2.5-1.122 2.5-2.5v-15C30 9.122 28.878 8 27.5 8h-5.11l-.526-2.106A2.497 2.497 0 0 0 19.438 4h-6.877a2.496 2.496 0 0 0-2.425 1.894L9.61 8H4.5A2.503 2.503 0 0 0 2 10.5v15C2 26.878 3.122 28 4.5 28zm23-1h-23c-.827 0-1.5-.673-1.5-1.5V15.17l10.5 3.111V21.5a.5.5 0 0 0 .5.5h4a.5.5 0 0 0 .5-.5v-3.219L29 15.17V25.5c0 .827-.673 1.5-1.5 1.5zM16 20a.5.5 0 0 0-.5.5v.5h-1v-2h3v2h-1v-.5a.5.5 0 0 0-.5-.5zm1.5-2.093V18h-3v-1h3v.907zM11.106 6.136A1.498 1.498 0 0 1 12.562 5h6.877a1.5 1.5 0 0 1 1.456 1.136L21.36 8H10.64l.466-1.864zM3 10.5C3 9.673 3.673 9 4.5 9h23c.827 0 1.5.673 1.5 1.5v3.626l-10.5 3.111V16.5a.5.5 0 0 0-.5-.5h-4a.5.5 0 0 0-.5.5v.738L3 14.126V10.5z"/></svg>