<svg xmlns="http://www.w3.org/2000/svg" data-name="Layer 1" viewBox="0 0 32 32"><path d="M21.5,15.5H17.4079a1.49809,1.49809,0,0,0-.9079-.9079V8.5a.5.5,0,0,0-1,0v6.0921A1.4963,1.4963,0,1,0,17.4079,16.5H21.5a.5.5,0,0,0,0-1Zm-5.5,1a.5.5,0,1,1,.5-.5A.50034.50034,0,0,1,16,16.5Zm9.21417-9.65955c-.00873-.01025-.01208-.02313-.02179-.03284s-.02258-.01306-.03284-.02179a12.97336,12.97336,0,0,0-18.31909,0c-.01025.00873-.02313.01208-.03284.02179s-.01306.02258-.02179.03284a12.97336,12.97336,0,0,0,0,18.31909c.00873.01025.01208.02313.02179.03284s.02258.01306.03284.02179a12.97336,12.97336,0,0,0,18.31909,0c.01025-.00873.02313-.01208.03284-.02179s.01306-.02258.02179-.03284a12.97336,12.97336,0,0,0,0-18.31909ZM24.81793,24.1109l-1.03961-1.03961a.49995.49995,0,0,0-.707.707l1.03961,1.03961A11.93609,11.93609,0,0,1,16.5,27.97467V26.5a.5.5,0,0,0-1,0v1.47467a11.93609,11.93609,0,0,1-7.6109-3.15674l1.03961-1.03961a.49995.49995,0,0,0-.707-.707L7.18207,24.1109A11.93609,11.93609,0,0,1,4.02533,16.5H5.5a.5.5,0,0,0,0-1H4.02533A11.93609,11.93609,0,0,1,7.18207,7.8891L8.22168,8.92871a.49995.49995,0,0,0,.707-.707L7.8891,7.18207A11.93609,11.93609,0,0,1,15.5,4.02533V5.5a.5.5,0,0,0,1,0V4.02533a11.93609,11.93609,0,0,1,7.6109,3.15674L23.07129,8.22168a.49995.49995,0,1,0,.707.707L24.81793,7.8891A11.93609,11.93609,0,0,1,27.97467,15.5H26.5a.5.5,0,0,0,0,1h1.47467A11.93609,11.93609,0,0,1,24.81793,24.1109ZM16,0A16,16,0,1,0,32,16,16.01833,16.01833,0,0,0,16,0Zm0,31A15,15,0,1,1,31,16,15.017,15.017,0,0,1,16,31Z"/></svg>