<svg xmlns="http://www.w3.org/2000/svg" enable-background="new 0 0 64 64" viewBox="0 0 64 64"><path d="M32,64c-8.88,0-17.76-2-26.57-6.01c-0.38-0.17-0.6-0.56-0.56-0.97c0.82-9.04,6.31-15.3,15.86-18.09
					c2.82-0.82,3.91-3.12,4.32-4.91c0.12-0.52,0.65-0.84,1.16-0.73c0.52,0.12,0.85,0.64,0.73,1.16c-0.75,3.24-2.76,5.49-5.67,6.33
					c-8.47,2.48-13.44,7.9-14.4,15.72c16.67,7.39,33.58,7.39,50.27,0c-0.97-7.82-5.94-13.25-14.41-15.72
					c-3.7-1.08-5.13-4.03-5.67-6.32c-0.12-0.52,0.2-1.04,0.72-1.17c0.52-0.12,1.04,0.2,1.17,0.72c0.62,2.6,2.07,4.25,4.32,4.9
					c9.55,2.79,15.04,9.04,15.87,18.09c0.04,0.41-0.19,0.8-0.56,0.97C49.76,62,40.87,64,32,64z"/><path d="M31.99 36.97C26 36.97 20.02 32 17.86 25.3c-1.98-.54-2.87-2.71-3.48-4.82-.62-2.11-.06-3.26.51-3.86.43-.45.99-.7 1.53-.8.03-4.69 1.4-8.45 4.09-11.2C25.08-.03 31.75 0 32 0c.27.01 6.91-.03 11.48 4.63 2.69 2.74 4.06 6.51 4.09 11.2.54.1 1.09.35 1.52.79.58.59 1.14 1.75.52 3.87 0 0 0 0 0 0-.65 2.21-1.53 4.3-3.49 4.82C43.97 32 38 36.97 31.99 36.97zM17 17.72c-.21 0-.53.06-.72.26-.3.31-.32 1.03-.04 1.97.87 3.02 1.69 3.49 2.45 3.54.41.03.75.31.86.7 1.76 6.18 7.11 10.84 12.44 10.84 5.34 0 10.69-4.66 12.44-10.84.11-.39.45-.67.86-.7.75-.06 1.58-.53 2.46-3.54.27-.94.25-1.66-.05-1.97-.25-.26-.73-.28-.87-.24-.3.08-.61.01-.85-.18-.24-.19-.37-.48-.36-.79.15-4.6-1.03-8.22-3.51-10.76-3.92-4.02-9.89-4.06-10.1-4.06 0 0 0 0 0 0-.12.01-6.14 0-10.11 4.06-2.48 2.54-3.67 6.16-3.51 10.76.01.31-.12.6-.36.79-.24.19-.55.26-.85.18C17.13 17.73 17.07 17.72 17 17.72zM48.68 20.22L48.68 20.22 48.68 20.22zM31.99 47.92c-5.64 0-10.81-2.42-14.19-6.64-.34-.42-.27-1.03.15-1.36.42-.34 1.03-.27 1.36.15 3.01 3.76 7.63 5.91 12.67 5.91s9.66-2.15 12.67-5.91c.33-.42.94-.49 1.36-.15.42.34.49.95.15 1.36C42.8 45.5 37.63 47.92 31.99 47.92z"/><path d="M19.47,19.45c-0.32,0-0.62-0.16-0.81-0.43c-0.45-0.67-0.96-1.1-1.58-1.31c-0.51-0.18-0.77-0.73-0.59-1.24
			c0.18-0.5,0.73-0.77,1.24-0.59c0.33,0.12,0.64,0.27,0.93,0.45c0.35-1.95,1.28-4.01,3.08-5.35c1.49-1.1,4.18-2.1,8.57-0.6
			c1.08,0.37,2.28,0.37,3.36,0c4.39-1.5,7.08-0.5,8.57,0.6c1.82,1.35,2.75,3.43,3.09,5.4c0.27-0.19,0.57-0.36,0.89-0.49
			c0.5-0.2,1.06,0.04,1.26,0.54c0.2,0.5-0.04,1.06-0.54,1.26c-0.65,0.26-1.27,0.93-1.69,1.42c-0.27,0.31-0.71,0.42-1.09,0.27
			c-0.38-0.15-0.63-0.52-0.62-0.93c0.06-1.84-0.55-4.5-2.46-5.91c-1.62-1.2-3.9-1.31-6.79-0.32c-1.49,0.51-3.13,0.51-4.61,0
			c-2.89-0.99-5.17-0.88-6.79,0.32c-1.91,1.41-2.52,4.06-2.46,5.91c0.01,0.43-0.26,0.82-0.67,0.95
			C19.67,19.44,19.57,19.45,19.47,19.45z"/></svg>